<?xml version="1.0" encoding="iso-8859-1"?>
<!-- Uploaded to: SVG Repo, www.svgrepo.com, Generator: SVG Repo Mixer Tools -->
<svg fill="#9CA38F" height="800px" width="800px" version="1.1" id="Layer_1" xmlns="http://www.w3.org/2000/svg" xmlns:xlink="http://www.w3.org/1999/xlink" 
	 viewBox="0 0 512 512" xml:space="preserve">
<g>
	<g>
		<path d="M302.296,221.673L182.04,101.417L61.784,221.673c-66.31,66.31-66.31,174.203,0,240.513
			C93.904,494.308,136.612,512,182.04,512s88.135-17.692,120.256-49.814C368.606,395.876,368.606,287.983,302.296,221.673z
			 M270.926,430.815c-23.743,23.742-55.311,36.818-88.887,36.818c-33.576,0-65.142-13.075-88.885-36.818
			c-49.012-49.012-49.012-128.759,0-177.772l88.885-88.885l88.887,88.885C319.938,302.056,319.938,381.803,270.926,430.815z"/>
	</g>
</g>
<g>
	<g>
		<path d="M471.84,67.971L403.869,0l-67.971,67.971c-37.48,37.48-37.48,98.462,0,135.942c18.153,18.154,42.292,28.153,67.968,28.156
			c0.003,0,0.006,0,0.009,0c25.67,0,49.809-10,67.965-28.156C509.319,166.433,509.319,105.451,471.84,67.971z M440.469,172.542
			c-9.777,9.777-22.771,15.161-36.594,15.161h-0.004c-13.827-0.001-26.826-5.386-36.602-15.161c-20.18-20.18-20.18-53.02,0-73.2
			l36.6-36.6l36.6,36.6C460.648,119.522,460.648,152.362,440.469,172.542z"/>
	</g>
</g>
</svg>